<?xml version="1.0" encoding="UTF-8" standalone="no"?>
<!DOCTYPE svg PUBLIC "-//W3C//DTD SVG 1.1//EN" "http://www.w3.org/Graphics/SVG/1.1/DTD/svg11.dtd">
<svg width="100%" height="100%" viewBox="0 0 2480 2480" version="1.1" xmlns="http://www.w3.org/2000/svg" xmlns:xlink="http://www.w3.org/1999/xlink" xml:space="preserve" xmlns:serif="http://www.serif.com/" style="fill-rule:evenodd;clip-rule:evenodd;stroke-linejoin:round;stroke-miterlimit:2;">
    <g transform="matrix(1.17498,0.491203,0.491203,-1.17498,-1399.87,1906.39)">
        <g id="Layer2">
            <g>
                <path d="M1635.43,708.592L1718.03,471.251L1799.89,708.021L1718.1,811.715L1635.43,708.592Z" style="fill:rgb(235,56,96);"/>
                <path d="M1635.43,708.592L1718.1,811.715L1799.89,708.021L1718.03,471.251L1635.43,708.592ZM1650.17,706.055L1717.99,511.183L1785.19,705.535L1718.02,790.689L1650.17,706.055Z" style="fill:rgb(46,48,122);"/>
            </g>
        </g>
        <g id="Layer21" serif:id="Layer2" transform="matrix(-0.000246837,1,-1,-0.000246837,2983.02,-449.101)">
            <g>
                <g transform="matrix(1,0,0,1,-4.79473,-2.54534)">
                    <path d="M1635.43,708.592L1718.03,471.251L1799.89,708.021L1718.1,811.715L1635.43,708.592Z" style="fill:rgb(235,56,96);"/>
                    <path d="M1635.43,708.592L1718.1,811.715L1799.89,708.021L1718.03,471.251L1635.43,708.592ZM1650.17,706.055L1717.99,511.183L1785.19,705.535L1718.02,790.689L1650.17,706.055Z" style="fill:rgb(46,48,122);"/>
                </g>
                <g id="Layer22" serif:id="Layer2">
                </g>
            </g>
        </g>
        <g id="Layer23" serif:id="Layer2" transform="matrix(-1.83697e-16,-1,1,-1.83697e-16,451.815,2981.25)">
            <g>
                <path d="M1635.43,708.592L1718.03,471.251L1799.89,708.021L1718.1,811.715L1635.43,708.592Z" style="fill:rgb(235,56,96);"/>
                <path d="M1635.43,708.592L1718.1,811.715L1799.89,708.021L1718.03,471.251L1635.43,708.592ZM1650.17,706.055L1717.99,511.183L1785.19,705.535L1718.02,790.689L1650.17,706.055Z" style="fill:rgb(46,48,122);"/>
            </g>
        </g>
        <g id="Layer24" serif:id="Layer2" transform="matrix(-1,-0.000246837,0.000246837,-1,3430.32,2526.69)">
            <g>
                <g transform="matrix(1,0,0,1,-4.79473,-2.54534)">
                    <path d="M1635.43,708.592L1718.03,471.251L1799.89,708.021L1718.1,811.715L1635.43,708.592Z" style="fill:rgb(235,56,96);"/>
                    <path d="M1635.43,708.592L1718.1,811.715L1799.89,708.021L1718.03,471.251L1635.43,708.592ZM1650.17,706.055L1717.99,511.183L1785.19,705.535L1718.02,790.689L1650.17,706.055Z" style="fill:rgb(46,48,122);"/>
                </g>
                <g id="Layer25" serif:id="Layer2">
                </g>
            </g>
        </g>
        <g id="Layer26" serif:id="Layer2" transform="matrix(0.693873,0.720097,-0.720097,0.693873,1436.58,-850.407)">
            <g>
                <path d="M1635.43,708.592L1718.03,471.251L1799.89,708.021L1718.1,811.715L1635.43,708.592Z" style="fill:rgb(235,56,96);"/>
                <path d="M1635.43,708.592L1718.1,811.715L1799.89,708.021L1718.03,471.251L1635.43,708.592ZM1650.17,706.055L1717.99,511.183L1785.19,705.535L1718.02,790.689L1650.17,706.055Z" style="fill:rgb(46,48,122);"/>
            </g>
        </g>
        <g id="Layer27" serif:id="Layer2" transform="matrix(-0.720268,0.693696,-0.693696,-0.720268,3829.81,986.037)">
            <g>
                <g transform="matrix(1,0,0,1,-4.79473,-2.54534)">
                    <path d="M1635.43,708.592L1718.03,471.251L1799.89,708.021L1718.1,811.715L1635.43,708.592Z" style="fill:rgb(235,56,96);"/>
                    <path d="M1635.43,708.592L1718.1,811.715L1799.89,708.021L1718.03,471.251L1635.43,708.592ZM1650.17,706.055L1717.99,511.183L1785.19,705.535L1718.02,790.689L1650.17,706.055Z" style="fill:rgb(46,48,122);"/>
                </g>
                <g id="Layer28" serif:id="Layer2">
                </g>
            </g>
        </g>
        <g id="Layer29" serif:id="Layer2" transform="matrix(0.720097,-0.693873,0.693873,0.720097,-396.71,1543.55)">
            <g>
                <path d="M1635.43,708.592L1718.03,471.251L1799.89,708.021L1718.1,811.715L1635.43,708.592Z" style="fill:rgb(235,56,96);"/>
                <path d="M1635.43,708.592L1718.1,811.715L1799.89,708.021L1718.03,471.251L1635.43,708.592ZM1650.17,706.055L1717.99,511.183L1785.19,705.535L1718.02,790.689L1650.17,706.055Z" style="fill:rgb(46,48,122);"/>
            </g>
        </g>
        <g id="Layer210" serif:id="Layer2" transform="matrix(-0.693696,-0.720268,0.720268,-0.693696,1997.33,3372.96)">
            <g>
                <g transform="matrix(1,0,0,1,-4.79473,-2.54534)">
                    <path d="M1635.43,708.592L1718.03,471.251L1799.89,708.021L1718.1,811.715L1635.43,708.592Z" style="fill:rgb(235,56,96);"/>
                    <path d="M1635.43,708.592L1718.1,811.715L1799.89,708.021L1718.03,471.251L1635.43,708.592ZM1650.17,706.055L1717.99,511.183L1785.19,705.535L1718.02,790.689L1650.17,706.055Z" style="fill:rgb(46,48,122);"/>
                </g>
                <g id="Layer211" serif:id="Layer2">
                </g>
            </g>
        </g>
    </g>
    <g transform="matrix(2.24397,0,0,-2.24397,-2695.78,4091.25)">
        <path d="M2059.39,1262.17C2059.39,1333.37 1922.52,1391.17 1753.94,1391.17C1585.35,1391.17 1448.48,1333.37 1448.48,1262.17C1448.48,1190.96 1585.35,1133.16 1753.94,1133.16C1922.52,1133.16 2059.39,1190.96 2059.39,1262.17Z" style="fill:url(#_Linear1);stroke:rgb(46,50,124);stroke-width:7.43px;"/>
        <path d="M1537.95,1046.18C1588.3,995.83 1725.95,1051.74 1845.16,1170.94C1964.37,1290.15 2020.27,1427.81 1969.93,1478.16C1919.58,1528.5 1781.92,1472.6 1662.71,1353.39C1543.51,1234.18 1487.6,1096.53 1537.95,1046.18Z" style="fill:url(#_Linear2);stroke:rgb(46,50,124);stroke-width:7.43px;"/>
        <ellipse cx="1753.94" cy="1262.17" rx="129.009" ry="305.455" style="fill:url(#_Linear3);stroke:rgb(46,50,124);stroke-width:7.43px;"/>
        <path d="M1969.93,1046.18C2020.27,1096.53 1964.37,1234.18 1845.16,1353.39C1725.95,1472.6 1588.3,1528.5 1537.95,1478.16C1487.6,1427.81 1543.51,1290.15 1662.71,1170.94C1781.92,1051.74 1919.58,995.83 1969.93,1046.18Z" style="fill:url(#_Linear4);stroke:rgb(46,50,124);stroke-width:7.43px;"/>
    </g>
    <defs>
        <linearGradient id="_Linear1" x1="0" y1="0" x2="1" y2="0" gradientUnits="userSpaceOnUse" gradientTransform="matrix(-2405.86,46.9112,-46.9112,-2405.86,2974.85,1020.1)"><stop offset="0" style="stop-color:rgb(239,121,34);stop-opacity:1"/><stop offset="0.53" style="stop-color:rgb(223,110,26);stop-opacity:1"/><stop offset="1" style="stop-color:rgb(167,71,0);stop-opacity:1"/></linearGradient>
        <linearGradient id="_Linear2" x1="0" y1="0" x2="1" y2="0" gradientUnits="userSpaceOnUse" gradientTransform="matrix(-1313.26,-1195.01,1195.01,-1313.26,2603.73,1468.91)"><stop offset="0" style="stop-color:rgb(32,129,145);stop-opacity:1"/><stop offset="0.43" style="stop-color:rgb(24,112,127);stop-opacity:1"/><stop offset="1" style="stop-color:rgb(5,74,86);stop-opacity:1"/></linearGradient>
        <linearGradient id="_Linear3" x1="0" y1="0" x2="1" y2="0" gradientUnits="userSpaceOnUse" gradientTransform="matrix(-46.2787,-1269.92,1269.92,-46.2787,2116.77,1778.23)"><stop offset="0" style="stop-color:rgb(248,175,166);stop-opacity:1"/><stop offset="0.53" style="stop-color:rgb(250,147,134);stop-opacity:1"/><stop offset="1" style="stop-color:rgb(255,51,25);stop-opacity:1"/></linearGradient>
        <linearGradient id="_Linear4" x1="0" y1="0" x2="1" y2="0" gradientUnits="userSpaceOnUse" gradientTransform="matrix(1236.67,-1.96637,1.96637,1236.67,1304.4,1269.58)"><stop offset="0" style="stop-color:rgb(247,237,212);stop-opacity:1"/><stop offset="1" style="stop-color:rgb(249,197,67);stop-opacity:1"/></linearGradient>
    </defs>
</svg>
